<svg xmlns="http://www.w3.org/2000/svg" width="375" height="812" viewBox="0 0 375 812">
  <defs>
    <linearGradient id="bg" x1="0%" y1="0%" x2="0%" y2="100%">
      <stop offset="0%" style="stop-color:#18181b"/>
      <stop offset="100%" style="stop-color:#09090b"/>
    </linearGradient>
    <linearGradient id="accent" x1="0%" y1="0%" x2="100%" y2="100%">
      <stop offset="0%" style="stop-color:#6366f1"/>
      <stop offset="100%" style="stop-color:#8b5cf6"/>
    </linearGradient>
  </defs>
  <rect width="375" height="812" fill="url(#bg)" rx="40"/>
  <text x="30" y="52" fill="#a1a1aa" font-family="system-ui" font-size="14" font-weight="600">9:41</text>
  <!-- App bar -->
  <rect x="0" y="64" width="375" height="60" fill="#18181b"/>
  <text x="50" y="90" fill="#6366f1" font-family="system-ui" font-size="20">←</text>
  <text x="80" y="86" fill="white" font-family="system-ui" font-size="16" font-weight="600">Research Paper on NLP</text>
  <text x="80" y="104" fill="#52525b" font-family="system-ui" font-size="11">Ask questions about this document</text>
  <text x="320" y="92" fill="#a1a1aa" font-family="system-ui" font-size="16">📖</text>
  <text x="350" y="92" fill="#a1a1aa" font-family="system-ui" font-size="16">⋮</text>
  <line x1="0" y1="124" x2="375" y2="124" stroke="#27272a" stroke-width="1"/>
  <!-- User message -->
  <rect x="80" y="150" width="275" height="50" rx="16" fill="#27272a" stroke="#6366f1" stroke-width="1" opacity="0.5"/>
  <rect x="80" y="150" width="275" height="50" rx="16" fill="#27272a"/>
  <text x="96" y="180" fill="white" font-family="system-ui" font-size="14">What are the key findings?</text>
  <text x="339" y="192" fill="#52525b" font-family="system-ui" font-size="9" text-anchor="end">2:30 PM</text>
  <!-- User avatar -->
  <circle cx="367" cy="210" r="0" fill="none"/>
  <!-- AI message -->
  <rect x="20" y="220" width="290" height="180" rx="16" fill="#27272a"/>
  <circle cx="40" cy="242" r="14" fill="#6366f1" opacity="0.2"/>
  <text x="40" y="247" fill="#6366f1" font-family="system-ui" font-size="12" text-anchor="middle">✦</text>
  <text x="62" y="247" fill="#a1a1aa" font-family="system-ui" font-size="11" font-weight="600">CiteCoach</text>
  <text x="36" y="275" fill="#d4d4d8" font-family="system-ui" font-size="13">The paper identifies three key</text>
  <text x="36" y="293" fill="#d4d4d8" font-family="system-ui" font-size="13">findings in NLP research:</text>
  <text x="36" y="318" fill="#d4d4d8" font-family="system-ui" font-size="13">1. Transformer models show</text>
  <text x="46" y="336" fill="#d4d4d8" font-family="system-ui" font-size="13">significant improvements...</text>
  <text x="36" y="361" fill="#d4d4d8" font-family="system-ui" font-size="13">2. Few-shot learning reduces...</text>
  <!-- Citations -->
  <text x="36" y="388" fill="#52525b" font-family="system-ui" font-size="10">Sources</text>
  <rect x="36" y="392" width="40" height="22" rx="6" fill="#6366f1" opacity="0.15"/>
  <text x="56" y="407" fill="#6366f1" font-family="system-ui" font-size="11" text-anchor="middle">p.3</text>
  <rect x="82" y="392" width="40" height="22" rx="6" fill="#6366f1" opacity="0.15"/>
  <text x="102" y="407" fill="#6366f1" font-family="system-ui" font-size="11" text-anchor="middle">p.7</text>
  <rect x="128" y="392" width="46" height="22" rx="6" fill="#6366f1" opacity="0.15"/>
  <text x="151" y="407" fill="#6366f1" font-family="system-ui" font-size="11" text-anchor="middle">p.12</text>
  <!-- User message 2 -->
  <rect x="100" y="430" width="255" height="50" rx="16" fill="#27272a"/>
  <text x="116" y="460" fill="white" font-family="system-ui" font-size="14">Explain the methodology</text>
  <!-- AI typing indicator -->
  <rect x="20" y="500" width="100" height="40" rx="16" fill="#27272a"/>
  <circle cx="45" cy="520" r="4" fill="#6366f1" opacity="0.3"/>
  <circle cx="60" cy="520" r="4" fill="#6366f1" opacity="0.6"/>
  <circle cx="75" cy="520" r="4" fill="#6366f1" opacity="0.9"/>
  <!-- Sample questions (empty state style) -->
  <!-- Chat Input -->
  <rect x="16" y="736" width="343" height="50" rx="25" fill="#27272a"/>
  <text x="50" y="766" fill="#52525b" font-family="system-ui" font-size="14">Ask about this document...</text>
  <!-- Mic button -->
  <circle cx="310" cy="761" r="18" fill="none"/>
  <text x="310" y="766" fill="#a1a1aa" font-family="system-ui" font-size="16" text-anchor="middle">🎤</text>
  <!-- Send button -->
  <circle cx="340" cy="761" r="18" fill="url(#accent)"/>
  <text x="340" y="766" fill="white" font-family="system-ui" font-size="14" text-anchor="middle">↑</text>
</svg>
