<svg xmlns="http://www.w3.org/2000/svg" width="375" height="812" viewBox="0 0 375 812">
  <defs>
    <linearGradient id="bg" x1="0%" y1="0%" x2="0%" y2="100%">
      <stop offset="0%" style="stop-color:#1c1917"/>
      <stop offset="100%" style="stop-color:#0c0a09"/>
    </linearGradient>
  </defs>
  <rect width="375" height="812" fill="url(#bg)" rx="40"/>
  <text x="30" y="52" fill="#a1a1aa" font-family="system-ui" font-size="14" font-weight="600">9:41</text>
  <!-- Top toolbar -->
  <rect x="0" y="64" width="375" height="56" fill="#18181b" opacity="0.95"/>
  <text x="40" y="98" fill="#6366f1" font-family="system-ui" font-size="20">←</text>
  <text x="70" y="90" fill="white" font-family="system-ui" font-size="15" font-weight="600">Research Paper on NLP</text>
  <text x="70" y="108" fill="#52525b" font-family="system-ui" font-size="11">Page 3 of 12</text>
  <text x="310" y="97" fill="#a1a1aa" font-family="system-ui" font-size="16">🔍</text>
  <text x="345" y="97" fill="#a1a1aa" font-family="system-ui" font-size="16">💬</text>
  <line x1="0" y1="120" x2="375" y2="120" stroke="#27272a" stroke-width="1"/>
  <!-- PDF page simulation -->
  <rect x="24" y="140" width="327" height="470" rx="4" fill="#fafaf9"/>
  <!-- PDF content simulation -->
  <text x="48" y="175" fill="#1c1917" font-family="Georgia, serif" font-size="18" font-weight="bold">3. Methodology</text>
  <rect x="48" y="190" width="280" height="8" rx="2" fill="#d6d3d1"/>
  <rect x="48" y="206" width="260" height="8" rx="2" fill="#d6d3d1"/>
  <rect x="48" y="222" width="275" height="8" rx="2" fill="#d6d3d1"/>
  <rect x="48" y="238" width="240" height="8" rx="2" fill="#d6d3d1"/>
  <rect x="48" y="254" width="270" height="8" rx="2" fill="#d6d3d1"/>
  <text x="48" y="290" fill="#1c1917" font-family="Georgia, serif" font-size="15" font-weight="bold">3.1 Data Collection</text>
  <rect x="48" y="305" width="280" height="8" rx="2" fill="#d6d3d1"/>
  <rect x="48" y="321" width="255" height="8" rx="2" fill="#d6d3d1"/>
  <rect x="48" y="337" width="270" height="8" rx="2" fill="#d6d3d1"/>
  <rect x="48" y="353" width="230" height="8" rx="2" fill="#d6d3d1"/>
  <!-- Table/figure placeholder -->
  <rect x="60" y="380" width="255" height="100" rx="6" fill="#e7e5e4" stroke="#d6d3d1" stroke-width="1"/>
  <text x="187" y="430" fill="#78716c" font-family="system-ui" font-size="12" text-anchor="middle">Figure 2: Data Distribution</text>
  <rect x="80" y="400" width="20" height="16" fill="#6366f1" opacity="0.4"/>
  <rect x="110" y="392" width="20" height="24" fill="#6366f1" opacity="0.5"/>
  <rect x="140" y="384" width="20" height="32" fill="#6366f1" opacity="0.6"/>
  <rect x="170" y="396" width="20" height="20" fill="#6366f1" opacity="0.5"/>
  <rect x="200" y="404" width="20" height="12" fill="#6366f1" opacity="0.4"/>
  <rect x="48" y="500" width="280" height="8" rx="2" fill="#d6d3d1"/>
  <rect x="48" y="516" width="250" height="8" rx="2" fill="#d6d3d1"/>
  <rect x="48" y="532" width="265" height="8" rx="2" fill="#d6d3d1"/>
  <rect x="48" y="548" width="200" height="8" rx="2" fill="#d6d3d1"/>
  <rect x="48" y="564" width="280" height="8" rx="2" fill="#d6d3d1"/>
  <rect x="48" y="580" width="240" height="8" rx="2" fill="#d6d3d1"/>
  <!-- Bottom toolbar -->
  <rect x="0" y="640" width="375" height="56" fill="#18181b" opacity="0.95"/>
  <line x1="0" y1="640" x2="375" y2="640" stroke="#27272a" stroke-width="1"/>
  <!-- Page nav -->
  <text x="40" y="674" fill="#a1a1aa" font-family="system-ui" font-size="16">⏮</text>
  <text x="80" y="674" fill="#a1a1aa" font-family="system-ui" font-size="16">◀</text>
  <rect x="120" y="654" width="60" height="30" rx="8" fill="#27272a"/>
  <text x="150" y="674" fill="white" font-family="system-ui" font-size="13" text-anchor="middle">3 / 12</text>
  <text x="210" y="674" fill="#a1a1aa" font-family="system-ui" font-size="16">▶</text>
  <text x="250" y="674" fill="#a1a1aa" font-family="system-ui" font-size="16">⏭</text>
  <!-- Zoom -->
  <text x="310" y="674" fill="#a1a1aa" font-family="system-ui" font-size="18">−</text>
  <text x="345" y="674" fill="#a1a1aa" font-family="system-ui" font-size="18">+</text>
</svg>
